<svg xmlns="http://www.w3.org/2000/svg" xmlns:xlink="http://www.w3.org/1999/xlink" preserveAspectRatio="xMidYMid" width="24" height="24" viewBox="0 0 24 24">
  <defs>
    <style>
      .cls-1 {
        fill: #6f5fba;
        fill-rule: evenodd;
      }
    </style>
  </defs>
  <path d="M12.000,24.000 C5.383,24.000 -0.000,18.617 -0.000,12.000 C-0.000,5.383 5.383,-0.000 12.000,-0.000 C18.617,-0.000 24.000,5.383 24.000,12.000 C24.000,18.617 18.617,24.000 12.000,24.000 ZM22.121,13.643 C21.770,13.532 18.948,12.690 15.736,13.205 C17.076,16.889 17.622,19.889 17.727,20.513 C20.027,18.958 21.664,16.495 22.121,13.643 ZM16.004,21.451 C15.851,20.552 15.256,17.418 13.817,13.678 C13.795,13.686 13.772,13.693 13.750,13.701 C7.968,15.716 5.893,19.725 5.708,20.102 C7.446,21.457 9.630,22.266 12.000,22.266 C13.420,22.266 14.773,21.975 16.004,21.451 ZM4.385,18.869 C4.617,18.472 7.430,13.814 12.717,12.105 C12.850,12.062 12.985,12.021 13.121,11.983 C12.863,11.401 12.583,10.818 12.290,10.244 C7.171,11.776 2.203,11.712 1.755,11.702 C1.752,11.806 1.750,11.911 1.750,12.016 C1.750,14.648 2.748,17.052 4.385,18.869 ZM1.966,9.916 C2.425,9.922 6.648,9.941 11.442,8.667 C9.744,5.648 7.912,3.110 7.642,2.739 C4.774,4.092 2.631,6.736 1.966,9.916 ZM9.598,2.050 C9.881,2.430 11.743,4.965 13.423,8.051 C17.067,6.685 18.610,4.611 18.795,4.348 C16.985,2.742 14.604,1.765 12.000,1.765 C11.173,1.765 10.369,1.865 9.598,2.050 ZM19.934,5.534 C19.718,5.826 18.001,8.028 14.211,9.575 C14.449,10.063 14.678,10.560 14.891,11.060 C14.966,11.237 15.040,11.413 15.112,11.589 C18.522,11.160 21.911,11.847 22.249,11.919 C22.226,9.499 21.362,7.278 19.934,5.534 Z" class="cls-1"/>
</svg>
