<svg xmlns="http://www.w3.org/2000/svg" xmlns:xlink="http://www.w3.org/1999/xlink" preserveAspectRatio="xMidYMid" width="24" height="24" viewBox="0 0 24 24">
  <defs>
    <style>
      .cls-1 {
        fill: #6f5fba;
        fill-rule: evenodd;
      }
    </style>
  </defs>
  <path d="M21.166,0.011 L2.823,0.011 C1.258,0.011 -0.011,1.278 -0.011,2.841 L-0.011,21.159 C-0.011,22.722 1.258,23.989 2.823,23.989 L21.166,23.989 C22.731,23.989 24.000,22.722 24.000,21.159 L24.000,2.841 C24.000,1.278 22.731,0.011 21.166,0.011 ZM11.966,7.424 C14.516,7.424 16.583,9.488 16.583,12.034 C16.583,14.580 14.516,16.644 11.966,16.644 C9.417,16.644 7.350,14.580 7.350,12.034 C7.350,9.488 9.417,7.424 11.966,7.424 ZM21.212,20.322 C21.212,20.810 20.816,21.205 20.328,21.205 L3.661,21.205 C3.173,21.205 2.777,20.810 2.777,20.322 L2.777,10.165 L4.813,10.165 C4.657,10.762 4.574,11.389 4.574,12.034 C4.574,16.111 7.884,19.416 11.966,19.416 C16.049,19.416 19.359,16.111 19.359,12.034 C19.359,11.388 19.275,10.762 19.118,10.165 L21.212,10.165 L21.212,20.322 ZM21.212,6.491 C21.212,7.020 20.783,7.449 20.253,7.449 L17.511,7.449 C16.981,7.449 16.551,7.020 16.551,6.491 L16.551,3.753 C16.551,3.224 16.981,2.795 17.511,2.795 L20.253,2.795 C20.783,2.795 21.212,3.224 21.212,3.753 L21.212,6.491 Z" class="cls-1"/>
</svg>
