<svg xmlns="http://www.w3.org/2000/svg" xmlns:xlink="http://www.w3.org/1999/xlink" preserveAspectRatio="xMidYMid" width="28" height="22.688" viewBox="0 0 28 22.688">
  <defs>
    <style>
      .cls-1 {
        fill: #6f5fba;
        fill-rule: evenodd;
      }
    </style>
  </defs>
  <path d="M27.989,2.694 C26.959,3.149 25.852,3.457 24.690,3.595 C25.876,2.887 26.787,1.765 27.216,0.429 C26.106,1.085 24.876,1.561 23.568,1.818 C22.520,0.705 21.027,0.011 19.375,0.011 C16.202,0.011 13.630,2.573 13.630,5.733 C13.630,6.181 13.681,6.618 13.779,7.037 C9.005,6.798 4.772,4.520 1.938,1.058 C1.444,1.903 1.161,2.886 1.161,3.935 C1.161,5.920 2.175,7.671 3.716,8.698 C2.775,8.668 1.889,8.411 1.114,7.982 C1.114,8.006 1.114,8.030 1.114,8.054 C1.114,10.826 3.094,13.139 5.722,13.665 C5.240,13.796 4.732,13.866 4.208,13.866 C3.838,13.866 3.478,13.830 3.128,13.763 C3.859,16.036 5.980,17.691 8.494,17.737 C6.528,19.272 4.051,20.186 1.359,20.186 C0.896,20.186 0.438,20.159 -0.011,20.107 C2.531,21.730 5.551,22.677 8.795,22.677 C19.361,22.677 25.140,13.958 25.140,6.396 C25.140,6.148 25.134,5.901 25.123,5.656 C26.245,4.849 27.219,3.841 27.989,2.694 Z" class="cls-1"/>
</svg>
